<?xml version="1.0" encoding="UTF-8"?>
<svg width="1200pt" height="1200pt" version="1.1" viewBox="0 0 1200 1200" xmlns="http://www.w3.org/2000/svg">
 <path d="m1025.9 189.62h81.105c15.805-0.066406 31.07 5.7305 42.848 16.27 11.668 10.266 18.414 25.02 18.543 40.559v673.44c-0.12891 15.547-6.8711 30.301-18.543 40.574-11.781 10.531-27.043 16.328-42.848 16.27h-397.55l7.2617 57.953h108.5c17.031 0.035156 33.359 6.8164 45.402 18.859 12.047 12.039 18.836 28.363 18.879 45.398v50.969-0.003907c0 3.5352-1.4023 6.9219-3.9023 9.4219-2.5 2.4961-5.8906 3.8984-9.4219 3.8945h-552.38c-7.3516 0-13.316-5.9609-13.324-13.316v-50.965c0.039063-17.035 6.8242-33.363 18.871-45.406 12.047-12.047 28.375-18.828 45.41-18.863h108.5l7.25-57.953-397.55-0.003906c-15.805 0.0625-31.066-5.7344-42.848-16.27-11.668-10.266-18.41-25.016-18.543-40.559v-673.44c0.12891-15.539 6.875-30.293 18.543-40.559 11.777-10.539 27.043-16.336 42.848-16.27h490.31c0-24.832 0.10156-49.691 0.11328-74.527v-1.7812c0-24 26.895-44.211 70.395-57.422 49.129-13.449 99.914-19.891 150.85-19.137 50.965-0.76172 101.79 5.6875 150.95 19.148 43.211 13.137 70.043 33.145 70.395 56.941v0.66797c0 25.348-0.035156 50.715-0.10156 76.105zm-478.55 734.63h105.25c7.3594 0 13.324-5.9688 13.324-13.328s-5.9648-13.324-13.324-13.324h-105.25c-7.3594 0-13.324 5.9648-13.324 13.324s5.9648 13.328 13.324 13.328zm230.38-693.47v-0.003906c-7.1758-1.2695-14.035 3.4766-15.375 10.641-1.3438 7.1641 3.3359 14.074 10.488 15.484 3.4805 0.68359 7.0898-0.046875 10.027-2.0391 2.9336-1.9883 4.9531-5.0703 5.6055-8.5547 0.65234-3.4883-0.11719-7.0898-2.1328-10.004-2.0195-2.918-5.1211-4.9062-8.6133-5.5273zm-92.324-13.141c-7.3008-0.83203-13.895 4.4102-14.727 11.711-0.83203 7.3008 4.4102 13.895 11.711 14.727 3.5391 0.47656 7.1211-0.49609 9.9375-2.6914 2.8203-2.1953 4.6367-5.4297 5.0391-8.9805 0.40625-3.5508-0.63281-7.1133-2.8828-9.8867-2.25-2.7734-5.5195-4.5273-9.0781-4.8633zm91.492 261.59v0.003907c-3.5078-0.42969-7.0391 0.55078-9.8203 2.7266s-4.5859 5.3672-5.0156 8.875c-0.89453 7.3008 4.3008 13.941 11.602 14.836 7.3008 0.89062 13.941-4.3086 14.832-11.609 0.88672-7.3008-4.3086-13.941-11.609-14.828zm-90.707-12.848v0.003906c-7.25-1.2656-14.152 3.582-15.418 10.832s3.5859 14.152 10.832 15.418c7.2461 1.2656 14.145-3.582 15.41-10.828 1.2656-7.2422-3.5781-14.145-10.824-15.41zm90.707-112.54v0.003906c-3.5078-0.42969-7.0391 0.55469-9.8203 2.7305s-4.5859 5.3672-5.0156 8.8711c-0.89453 7.3008 4.3008 13.945 11.602 14.836 7.3008 0.89062 13.941-4.3047 14.832-11.605 0.88672-7.3008-4.3086-13.941-11.609-14.832zm-91.492-12.949v0.007813c-3.5391-0.47656-7.1211 0.49609-9.9375 2.6914-2.8203 2.1953-4.6367 5.4336-5.0391 8.9805-0.40625 3.5508 0.63281 7.1133 2.8828 9.8867 2.25 2.7734 5.5195 4.5273 9.0781 4.8672 3.5391 0.47266 7.1211-0.5 9.9375-2.6953 2.8203-2.1953 4.6367-5.4297 5.0391-8.9805 0.40625-3.5508-0.63281-7.1133-2.8828-9.8867s-5.5195-4.5273-9.0781-4.8633zm-102.14-124.62-490.32 0.007813c-9.2109-0.10156-18.133 3.2031-25.047 9.2852-6.0547 5.2734-9.582 12.867-9.7031 20.891v673.44c0.11719 8.0273 3.6445 15.625 9.7031 20.895 6.9102 6.0898 15.836 9.3984 25.047 9.2969h1014.1c9.2109 0.10156 18.137-3.207 25.047-9.2969 6.0586-5.2695 9.5859-12.867 9.7031-20.895v-673.44c-0.12109-8.0234-3.6484-15.617-9.7031-20.891-6.9141-6.082-15.836-9.3867-25.047-9.2852h-81.172l-0.11328 39.965h62.742v0.003906c7.3555 0 13.32 5.957 13.328 13.312v588.89c-0.007812 7.3555-5.9727 13.316-13.328 13.316h-976.98c-7.3516 0-13.312-5.9609-13.312-13.316v-588.89c0-3.5312 1.4023-6.918 3.8984-9.4141 2.4961-2.4961 5.8828-3.8984 9.4141-3.8984h471.88v-14.617-1.7812c-0.050781-7.8555-0.085937-15.715-0.10156-23.57zm26.641 23.293v0.27734c0 10.914 19.668 22.359 51.461 32.035l0.003906 0.007812c46.668 12.66 94.891 18.688 143.24 17.898 48.352 0.78906 96.57-5.2383 143.24-17.898 31.691-9.6367 51.32-21.031 51.461-31.922v-88.383c-13.656 8.3242-28.375 14.762-43.758 19.137-49.16 13.473-99.977 19.938-150.95 19.199-50.969 0.75781-101.79-5.6914-150.95-19.148-15.387-4.3828-30.109-10.836-43.754-19.188v87.98zm389.46-126.12v-0.22656c-0.14062-10.902-19.77-22.27-51.461-31.91-46.688-12.676-94.926-18.707-143.29-17.91-48.352-0.79297-96.574 5.2383-143.24 17.91-31.746 9.6406-51.41 21.109-51.41 32.023 0 10.914 19.668 22.371 51.461 32.035v-0.003907c46.652 12.664 94.855 18.691 143.19 17.898 48.352 0.79688 96.57-5.2305 143.24-17.898 31.691-9.6367 51.32-21.031 51.461-31.922zm26.297 169.5c-0.17578 70.055-0.22656 140.1 0.33984 209.99 0 24-26.895 44.211-70.395 57.422-49.18 13.445-100.02 19.871-151 19.086-50.969 0.75781-101.79-5.6875-150.95-19.152-43.504-13.227-70.395-33.41-70.395-57.422-0.25391-41.547 0-83.168 0-124.72v-1.793-1.1992-82.207h-458.45v562.18h950.32v-562.18zm-371.95 14.324c-15.402-4.375-30.137-10.824-43.805-19.164v87.156 1.1367c0 10.926 19.668 22.371 51.461 32.035 46.672 12.652 94.891 18.66 143.24 17.848 48.352 0.79688 96.57-5.2305 143.24-17.898 31.691-9.6367 51.32-21.031 51.461-31.922v-88.316c-13.656 8.3242-28.375 14.758-43.758 19.125-49.16 13.461-99.98 19.906-150.95 19.148-50.969 0.76172-101.79-5.6875-150.95-19.148zm-43.805 107.37c0 29.406 0.125 58.852 0 88.258 0 10.914 19.668 22.359 51.461 32.035v-0.003906c46.672 12.656 94.891 18.672 143.24 17.875 48.352 0.78906 96.57-5.2383 143.24-17.898 31.793-9.6758 51.461-21.121 51.461-32.035v-88.219c-13.656 8.3242-28.375 14.758-43.758 19.125-49.16 13.465-99.98 19.918-150.95 19.16-50.969 0.75781-101.79-5.6914-150.95-19.16-15.406-4.3633-30.145-10.812-43.805-19.164zm-360.79-19.379-70.547 60.848c-5.543 4.8047-6.1484 13.195-1.3516 18.746 0.46094 0.53516 0.96875 1.0312 1.5156 1.4766l70.383 60.719c5.5469 4.8008 13.934 4.1953 18.734-1.3516 4.7969-5.543 4.1953-13.93-1.3516-18.73l-58.902-50.805 58.902-50.867c5.5469-4.8008 6.1484-13.188 1.3516-18.734-4.8008-5.543-13.188-6.1484-18.734-1.3516zm191.61 20.086 58.887 50.816-58.887 50.805c-2.6641 2.3047-4.3008 5.5742-4.5547 9.0859-0.25391 3.5117 0.89844 6.9844 3.2031 9.6445 4.8008 5.5469 13.188 6.1523 18.73 1.3516l70.383-60.719h0.003906c0.54297-0.44922 1.0508-0.94531 1.5156-1.4766 4.793-5.5547 4.1797-13.945-1.3672-18.746l-70.535-60.848c-5.543-4.7969-13.93-4.1914-18.73 1.3516-4.8008 5.5469-4.1953 13.934 1.3516 18.734zm-79.578-18.051-40.41 129.86c-2.1562 7.0117 1.7812 14.445 8.793 16.602 7.0117 2.1523 14.441-1.7812 16.598-8.793l40.422-129.91v-0.003907c2.1562-7.0078-1.7812-14.441-8.793-16.598-7.0117-2.1523-14.441 1.7812-16.598 8.793zm-129.73 424.69h737.11c7.3633 0 13.328-5.9688 13.328-13.328s-5.9648-13.324-13.328-13.324h-737.11c-7.3594 0-13.328 5.9648-13.328 13.324s5.9688 13.328 13.328 13.328zm-1.707-77.254 545.33-0.003907c7.1953-0.21875 12.914-6.1172 12.914-13.316 0-7.2031-5.7188-13.102-12.914-13.32h-545.33c-3.6016-0.11328-7.0977 1.2422-9.6875 3.75-2.5859 2.5117-4.0469 5.9648-4.0469 9.5703 0 3.6055 1.4609 7.0547 4.0469 9.5664 2.5898 2.5078 6.0859 3.8633 9.6875 3.75zm588.47 0 148.65-0.003907c3.6016 0.11328 7.0977-1.2422 9.6875-3.75 2.5859-2.5117 4.0469-5.9609 4.0469-9.5664 0-3.6055-1.4609-7.0586-4.0469-9.5703-2.5898-2.5078-6.0859-3.8633-9.6875-3.75h-148.65c-7.1953 0.21875-12.918 6.1172-12.918 13.32 0 7.1992 5.7227 13.098 12.918 13.316zm-512.97-76.5h589.52c7.3594 0 13.328-5.9648 13.328-13.324s-5.9688-13.328-13.328-13.328h-589.52c-7.3594 0-13.328 5.9688-13.328 13.328s5.9688 13.324 13.328 13.324zm204.86 376.42h179.8l-7.25-57.953h-165.3zm315.13 26.641h-450.47c-9.9727 0.039062-19.523 4.0195-26.57 11.074-7.0508 7.0547-11.023 16.609-11.059 26.582v37.641h525.73v-37.641c-0.039062-9.9688-4.0156-19.516-11.066-26.566-7.0469-7.0469-16.594-11.023-26.562-11.066z" fill="#fff" fill-rule="evenodd"/>
</svg>
