<?xml version="1.0" encoding="UTF-8"?>
<svg width="1200pt" height="1200pt" version="1.1" viewBox="0 0 1200 1200" xmlns="http://www.w3.org/2000/svg">
 <path d="m143.91 163.69h912.18c29.77 0.074219 58.297 11.934 79.348 32.984s32.91 49.578 32.984 79.348v648c-0.078125 29.77-11.938 58.297-32.988 79.348-21.047 21.051-49.578 32.91-79.344 32.988h-912.18c-29.777-0.078125-58.312-11.945-79.363-33.004-21.051-21.062-32.906-49.602-32.969-79.379v-648c0.074219-29.773 11.934-58.301 32.984-79.352s49.578-32.91 79.348-32.984zm231.87 639.68h448.42c3.6016 0.11328 7.0977-1.2422 9.6875-3.75 2.5859-2.5117 4.0469-5.9648 4.0469-9.5703s-1.4609-7.0547-4.0469-9.5664c-2.5898-2.5078-6.0859-3.8633-9.6875-3.7539h-448.42c-3.6055-0.10937-7.0977 1.2461-9.6875 3.7539-2.5898 2.5117-4.0508 5.9609-4.0508 9.5664s1.4609 7.0586 4.0508 9.5703c2.5898 2.5078 6.082 3.8633 9.6875 3.75zm-129.21 77.977h706.86c7.3633 0 13.328-5.9688 13.328-13.328s-5.9648-13.324-13.328-13.324h-706.86c-7.3633 0-13.328 5.9648-13.328 13.324s5.9648 13.328 13.328 13.328zm0 77.961h706.86c7.3633 0 13.328-5.9648 13.328-13.324 0-7.3633-5.9648-13.328-13.328-13.328h-706.86c-7.3633 0-13.328 5.9648-13.328 13.328 0 7.3594 5.9648 13.324 13.328 13.324zm208.67-738.25c-14.922 0.007813-28.988 6.957-38.066 18.797s-12.137 27.227-8.2695 41.637c3.8633 14.414 14.211 26.207 27.996 31.914 13.785 5.7109 29.441 4.6836 42.363-2.7734 12.922-7.4609 21.641-20.504 23.59-35.297s-3.0898-29.648-13.633-40.203c-9.0039-9.0234-21.234-14.086-33.98-14.074zm15.156 32.918c-4.7148-4.6836-11.344-6.9141-17.934-6.0273-6.5898 0.88672-12.395 4.7891-15.703 10.555-3.3125 5.7656-3.7539 12.746-1.1953 18.883 2.5586 6.1367 7.8242 10.738 14.25 12.449 6.4258 1.7109 13.281 0.33594 18.551-3.7188 5.2695-4.0547 8.3555-10.332 8.3477-16.98 0.003906-5.6953-2.2695-11.152-6.3164-15.16zm-138.95-32.918h0.003906c-14.922 0.007813-28.988 6.957-38.066 18.797s-12.137 27.227-8.2695 41.637c3.8633 14.414 14.211 26.207 27.996 31.914 13.785 5.7109 29.441 4.6836 42.363-2.7734 12.918-7.4609 21.637-20.504 23.59-35.297 1.9492-14.793-3.0898-29.648-13.637-40.203-9-9.0273-21.23-14.09-33.977-14.074zm15.156 32.918h0.003906c-4.7266-4.7109-11.383-6.957-18-6.0742-6.6172 0.88672-12.449 4.7969-15.773 10.586-3.3281 5.7891-3.7734 12.797-1.207 18.961 2.5703 6.1602 7.8594 10.781 14.312 12.492 6.4531 1.7148 13.336 0.33203 18.625-3.7461 5.2852-4.0781 8.375-10.383 8.3594-17.059 0.003907-5.6953-2.2695-11.152-6.3164-15.16zm-138.95-32.918h0.007812c-14.922 0.007813-28.988 6.957-38.066 18.797s-12.137 27.227-8.2695 41.637c3.8633 14.414 14.211 26.207 27.996 31.914 13.785 5.7109 29.438 4.6836 42.359-2.7734 12.922-7.4609 21.641-20.504 23.594-35.297 1.9492-14.793-3.0898-29.648-13.637-40.203-9.0078-9.0156-21.23-14.078-33.977-14.074zm15.156 32.918h0.007812c-4.7305-4.7109-11.383-6.957-18-6.0742-6.6172 0.88672-12.449 4.7969-15.773 10.586-3.3281 5.7891-3.7734 12.797-1.207 18.961 2.5703 6.1602 7.8594 10.781 14.312 12.492 6.4531 1.7148 13.336 0.33203 18.621-3.7461 5.2891-4.0781 8.3789-10.383 8.3633-17.059 0-5.6914-2.2734-11.148-6.3164-15.16zm279.14 240.76-85.617 85.617c-2.4961 2.5-3.9023 5.8867-3.9023 9.418s1.4062 6.9219 3.9023 9.418l85.617 85.617c5.2031 5.1992 13.633 5.1992 18.836 0 5.1992-5.2031 5.1992-13.633 0-18.836l-76.156-76.191 76.195-76.207h-0.003906c5.2031-5.2031 5.2031-13.633 0-18.836-5.1992-5.1992-13.633-5.1992-18.832 0zm177.25 18.836 76.168 76.207-76.168 76.191c-4.9727 5.2422-4.8633 13.492 0.24609 18.602 5.1133 5.1094 13.363 5.2109 18.602 0.23438l85.617-85.617c2.4961-2.4961 3.9023-5.8867 3.9023-9.418s-1.4062-6.918-3.9023-9.418l-85.617-85.617c-5.2383-4.9766-13.488-4.8711-18.602 0.23438-5.1094 5.1094-5.2188 13.359-0.24609 18.602zm-67.566-18.633-48.973 182.79c-1.8984 7.0977 2.3203 14.391 9.418 16.289 7.0977 1.8945 14.391-2.3203 16.289-9.418l48.984-182.79c1.0078-3.4414 0.58203-7.1406-1.1758-10.266-1.7578-3.125-4.7031-5.4062-8.168-6.332-3.4609-0.92578-7.1523-0.41406-10.234 1.4141-3.082 1.832-5.2969 4.8281-6.1406 8.3125zm-553.41-147.13h1083.6v-71.773c-0.082031-22.699-9.1328-44.449-25.188-60.504-16.055-16.055-37.805-25.105-60.504-25.188h-912.18c-22.699 0.082031-44.449 9.1328-60.504 25.188-16.055 16.055-25.105 37.805-25.188 60.504zm1083.6 26.641h-1083.6v549.54c0.078125 22.699 9.1289 44.449 25.184 60.504 16.055 16.051 37.809 25.102 60.508 25.176h912.18c22.699-0.074219 44.453-9.125 60.508-25.176 16.055-16.055 25.105-37.805 25.184-60.504z" fill="#fff" fill-rule="evenodd"/>
</svg>
