<?xml version="1.0" encoding="UTF-8"?>
<svg width="1200pt" height="1200pt" version="1.1" viewBox="0 0 1200 1200" xmlns="http://www.w3.org/2000/svg">
 <path d="m452.35 426.49h130.38c8.7344 0 15.816-7.0781 15.816-15.816v-130.38c0-8.7344-7.0781-15.816-15.816-15.816h-130.38c-8.7344 0-15.816 7.0781-15.816 15.816v130.38c0 8.7344 7.0781 15.816 15.816 15.816zm15.816-65.184h33.551v33.551h-33.551zm65.184 33.551v-33.551h33.551v33.551zm33.551-65.184h-33.551v-33.551h33.551zm-65.184-33.551v33.551h-33.551v-33.551zm227.11 282.59h142.52c8.7344 0 15.816-7.0781 15.816-15.816v-59.41c0-8.7344-7.0781-15.816-15.816-15.816h-142.52c-8.7344 0-15.816 7.0781-15.816 15.816v59.41c0 8.7344 7.0781 15.816 15.816 15.816zm15.816-59.41h110.88v27.781h-110.88zm408.97 154.49h-55.164v-407.14c0-5.3047-2.6641-10.262-7.0938-13.188-4.4297-2.9297-10.02-3.4453-14.902-1.3672l-149.7 63.48c-5.8438 2.4844-9.6484 8.207-9.6484 14.566v96.348h-36.469l-20.352-311.1c5.375-4.957 8.7734-12.035 8.7734-19.922v-38.004c0-14.965-12.168-27.133-27.133-27.133h-83.699c-14.965 0-27.133 12.168-27.133 27.133v38.004c0 7.8711 3.3945 14.953 8.7734 19.922l-20.352 311.1h-36.469l-0.003907-231.54c0-4.1992-1.668-8.2188-4.6328-11.184-2.9648-2.9648-6.9961-4.6328-11.184-4.6328h-28.211v-44.773c0-8.7344-7.0781-15.816-15.816-15.816h-211.34c-8.7344 0-15.816 7.0781-15.816 15.816v44.773h-28.211c-8.7344 0-15.816 7.0781-15.816 15.816v61.211l-140.05 59.387c-5.8438 2.4844-9.6484 8.207-9.6484 14.566v60.469h-84.961c-8.7344 0-15.816 7.0781-15.816 15.816v267.36l-55.164 0.003906c-8.7344 0-15.816 7.0781-15.816 15.816v68.207c0 8.7344 7.0781 15.816 15.816 15.816h141.75v50.125c0 7.5586 5.3398 14.051 12.758 15.516l61.344 12.098 32.785 79.129-34.824 51.938c-4.2109 6.2773-3.3945 14.652 1.957 19.992l93.266 93.254c5.3516 5.3398 13.727 6.1562 19.992 1.957l51.938-34.836 79.129 32.785 12.098 61.344c1.4648 7.4141 7.9688 12.758 15.516 12.758h131.89c7.5586 0 14.051-5.3398 15.516-12.758l12.098-61.344 79.129-32.785 51.938 34.836c6.2773 4.2109 14.652 3.3945 19.992-1.957l93.266-93.254c5.3398-5.3398 6.1562-13.715 1.957-19.992l-34.824-51.938 32.785-79.129 61.344-12.098c7.4141-1.4648 12.758-7.9688 12.758-15.516v-50.125h141.74c8.7344 0 15.816-7.0781 15.816-15.816v-68.207c0-8.7344-7.0781-15.816-15.816-15.816zm-86.809-383.24v383.24h-118.07l-0.003906-333.2 118.07-50.062zm-304.07-228.59h74.699v29.004h-74.699zm8.3633 60.637h57.961l19.883 303.89h-97.715zm146.02 335.52v215.66h-234.06v-215.66zm-489.43-307.93h179.7v28.957h-179.7v-28.957zm223.74 60.59 0.003906 463.01h-58.164v-140.2c0-23.328-18.973-42.301-42.301-42.301h-66.828c-23.328 0-42.301 18.973-42.301 42.301v140.2h-58.164v-463h267.77zm-89.809 463.01h-88.164v-140.2c0-5.7852 4.8828-10.668 10.668-10.668h66.828c5.7852 0 10.668 4.8828 10.668 10.668zm-209.6-383.25v383.24h-118.07v-333.18l118.07-50.062zm-218.84 131.7h69.145v251.54h-69.145zm847.07 388.51-56.902 11.219c-5.1953 1.0195-9.5273 4.5703-11.555 9.4688l-39.266 94.777c-2.0273 4.8828-1.4766 10.465 1.4766 14.867l32.305 48.168-74.867 74.867-48.18-32.305c-4.3906-2.9414-9.9727-3.5039-14.867-1.4766l-94.777 39.266c-4.8828 2.0273-8.4375 6.3594-9.4688 11.555l-11.219 56.902h-105.88l-11.219-56.902c-1.0195-5.1953-4.5703-9.5273-9.4688-11.555l-94.777-39.266c-4.8945-2.0273-10.465-1.4766-14.867 1.4766l-48.18 32.305-74.867-74.867 32.305-48.18c2.9531-4.3906 3.5039-9.9727 1.4766-14.867l-39.266-94.777c-2.0273-4.8828-6.3594-8.4375-11.555-9.4688l-56.902-11.219v-37.129h161.89c8.1367 113.36 102.96 203.11 218.35 203.11s210.23-89.746 218.35-203.11h161.89v37.129zm-566.82-37.129h373.16c-8.0625 95.891-88.633 171.48-186.57 171.48-97.945 0-178.51-75.59-186.57-171.48zm724.38-31.633-1075.6 0.003906v-36.562h1075.6v36.562z" fill="#fff"/>
</svg>
