<?xml version="1.0" encoding="UTF-8"?>
<svg width="1200pt" height="1200pt" version="1.1" viewBox="0 0 1200 1200" xmlns="http://www.w3.org/2000/svg">
 <path d="m1037.6 287.71 84.887 84.887c6.5508 6.5508 6.5508 17.207 0 23.762l-45.672 45.672c9.7188 15.625 18.047 31.922 24.984 48.719 7.0312 17.016 12.625 34.465 16.777 52.199h64.609c9.2383 0 16.727 7.4883 16.727 16.727v120.05c0 9.2383-7.4883 16.727-16.727 16.727v0.070312h-64.633c-4.1289 17.688-9.7188 35.137-16.754 52.105-6.9609 16.777-15.289 33.098-25.008 48.719l45.672 45.672c6.5508 6.5508 6.5508 17.207 0 23.762l-84.887 84.887c-6.5508 6.5508-17.207 6.5508-23.762 0l-45.672-45.672c-15.648 9.7188-31.945 18.047-48.719 25.008-17.016 7.0312-34.465 12.625-52.176 16.754v64.609c0 9.2383-7.4883 16.727-16.727 16.727v0.070312h-120.05c-9.2891 0-16.801-7.5117-16.801-16.801l-0.003906-64.598c-17.688-4.1289-35.137-9.7188-52.129-16.754-16.777-6.9609-33.07-15.289-48.719-24.984l-45.672 45.672c-6.5508 6.5508-17.207 6.5508-23.762 0l-84.887-84.887c-6.5508-6.5508-6.5508-17.207 0-23.762l45.672-45.672c-9.7188-15.625-18.047-31.945-25.008-48.719-7.0312-17.016-12.625-34.465-16.754-52.176h-64.609c-9.2383 0-16.727-7.4883-16.727-16.727h-0.070313v-120.07c0-9.2891 7.5117-16.801 16.801-16.801h64.633c4.1289-17.688 9.7188-35.137 16.754-52.129 6.9609-16.777 15.289-33.07 24.984-48.719l-45.672-45.672c-6.5508-6.5508-6.5508-17.207 0-23.762l84.887-84.887c6.5508-6.5508 17.207-6.5508 23.762 0l45.672 45.672c15.625-9.7188 31.945-18.047 48.719-25.008 17.016-7.0312 34.465-12.625 52.176-16.754v-64.609c0-9.2383 7.4883-16.727 16.727-16.727h120.05c9.2383 0 16.727 7.4883 16.727 16.727h0.070312v64.633c17.688 4.1289 35.137 9.7188 52.129 16.754 16.777 6.9609 33.07 15.289 48.719 24.984l45.672-45.672c6.6055-6.5508 17.238-6.5508 23.789 0zm-783.58 383.14c-8.9531-2.3984-18.145 2.9297-20.543 11.879l-7.2969 27.215c-8.0391 0.023438-16.078 0.57422-24.023 1.6094-8.0625 1.0547-15.984 2.6406-23.762 4.7031l-13.586-23.52c-0.16797-0.3125-0.3125-0.625-0.50391-0.9375-4.6328-8.0156-14.902-10.754-22.895-6.0977l-55.223 31.895c-8.0156 4.6328-10.754 14.902-6.0977 22.895l14.09 24.406c-5.6875 5.6875-11.016 11.762-15.961 18.191-4.8477 6.3125-9.3359 13.008-13.367 20.016l-27.238-7.2969c-8.9531-2.3984-18.145 2.9297-20.543 11.879l-16.512 61.609c-2.3984 8.9531 2.9297 18.145 11.879 20.543l27.215 7.2969c0.023438 8.0391 0.57422 16.078 1.6094 24.023 1.0547 8.0625 2.6406 15.984 4.7031 23.762l-23.52 13.586c-0.3125 0.16797-0.625 0.3125-0.9375 0.50391-8.0156 4.6328-10.754 14.902-6.0977 22.895l31.895 55.223c4.6328 8.0156 14.902 10.754 22.895 6.0977l24.406-14.09c5.6875 5.6875 11.762 11.016 18.191 15.961 6.3125 4.8477 13.008 9.3359 19.992 13.367l-7.2969 27.238c-2.3984 8.9531 2.9297 18.145 11.879 20.543l61.609 16.512c8.9531 2.3984 18.145-2.9297 20.543-11.879l7.2969-27.215c8.0391-0.023437 16.078-0.57422 24.023-1.6094 8.0625-1.0547 15.984-2.6406 23.762-4.7031l13.586 23.52c0.16797 0.3125 0.3125 0.625 0.50391 0.9375 4.6328 8.0156 14.902 10.754 22.895 6.0977l55.223-31.895c8.0156-4.6328 10.754-14.902 6.0977-22.895l-14.09-24.406c5.6875-5.6875 11.016-11.762 15.961-18.191 4.8477-6.3125 9.3359-13.008 13.367-19.992l27.238 7.2969c8.9531 2.3984 18.145-2.9297 20.543-11.879l16.512-61.609c2.3984-8.9531-2.9297-18.145-11.879-20.543l-27.215-7.2969c-0.023437-8.0391-0.57422-16.078-1.6094-24.023-1.0547-8.0625-2.6406-15.984-4.7031-23.762l23.52-13.586c0.3125-0.16797 0.625-0.3125 0.9375-0.50391 8.0156-4.6328 10.754-14.902 6.0977-22.895l-31.895-55.223c-4.6328-8.0156-14.902-10.754-22.895-6.0977l-24.406 14.09c-5.6875-5.6875-11.762-11.016-18.191-15.961-6.3125-4.8477-12.984-9.3125-19.992-13.367l7.2969-27.238c2.3984-8.9531-2.9297-18.145-11.879-20.543zm36.723 44.566-29.184-7.8203-6.3125 23.543c-1.8945 7.8242-9.2383 13.367-17.543 12.742-10.656-0.79297-21.098-0.48047-31.199 0.83984-10.391 1.3672-20.566 3.8164-30.383 7.2461v-0.023438c-7.4414 2.6172-15.938-0.35938-20.016-7.4648l-12.359-21.434-26.23 15.145 12.383 21.434c3.9609 6.8164 2.6406 15.719-3.5273 21.07-7.8477 6.7695-15.047 14.352-21.457 22.703-6.1445 7.9922-11.543 16.656-16.055 25.922-3.2148 7.5586-11.594 11.809-19.754 9.625l-23.902-6.4062-7.8242 29.184 23.543 6.3125c7.8242 1.8945 13.367 9.2383 12.742 17.543-0.79297 10.656-0.48047 21.098 0.83984 31.199 1.3672 10.391 3.8164 20.566 7.2461 30.383h-0.023438c2.6172 7.4414-0.35938 15.938-7.4648 20.016l-21.434 12.359 15.145 26.23 21.434-12.383c6.8164-3.9609 15.719-2.6406 21.07 3.5273 6.7695 7.8477 14.352 15.047 22.703 21.457 7.9922 6.1445 16.656 11.543 25.922 16.055 7.5586 3.2148 11.809 11.594 9.625 19.754l-6.4062 23.902 29.184 7.8242 6.3125-23.543c1.8945-7.8242 9.2383-13.367 17.543-12.742 10.656 0.79297 21.098 0.48047 31.199-0.83984 10.391-1.3672 20.566-3.8164 30.383-7.2461v0.023437c7.4414-2.6172 15.938 0.35938 20.016 7.4648l12.359 21.434 26.23-15.145-12.383-21.434c-3.9609-6.8164-2.6406-15.719 3.5273-21.07 7.8477-6.7695 15.047-14.352 21.457-22.703 6.1445-7.9922 11.543-16.656 16.055-25.922 3.2148-7.5586 11.594-11.809 19.754-9.625l23.902 6.4062 7.8242-29.184-23.543-6.3125c-7.8242-1.8945-13.367-9.2383-12.742-17.543 0.79297-10.656 0.48047-21.098-0.83984-31.199-1.3672-10.391-3.8164-20.566-7.2461-30.383h0.023437c-2.6172-7.4414 0.35938-15.938 7.4648-20.016l21.434-12.359-15.145-26.23-21.434 12.383c-6.8164 3.9609-15.719 2.6406-21.07-3.5273-6.7695-7.8477-14.375-15.047-22.703-21.457-7.9922-6.1445-16.656-11.52-25.895-16.055-7.5586-3.2148-11.809-11.594-9.625-19.754zm-32.402 62.496c32.809 8.7852 58.969 30.047 74.711 57.336 15.602 27.023 21 59.902 12.574 92.398-0.14453 0.69531-0.3125 1.3672-0.55078 2.0156-8.9531 32.328-30.07 58.105-57.047 73.68-27.023 15.602-59.902 21-92.398 12.574-0.69531-0.14453-1.3672-0.3125-2.0156-0.55078-32.281-8.9531-58.031-30.047-73.656-57.07v0.027343c-15.77-27.289-21.121-60.574-12.312-93.383 8.7852-32.762 30.047-58.895 57.336-74.688l-0.023438-0.023438c27.312-15.77 60.574-21.121 93.383-12.316zm45.695 74.113c11.449 19.824 15.312 44.016 8.9023 67.922-6.4062 23.879-21.863 42.91-41.711 54.359-19.824 11.449-44.016 15.312-67.922 8.9023-23.902-6.4062-42.938-21.863-54.359-41.641l-0.023437-0.046875 0.023437-0.023437c-11.449-19.824-15.312-44.016-8.9023-67.922 6.4062-23.902 21.863-42.938 41.641-54.359l0.046876-0.023438 0.023437 0.023438c19.824-11.449 44.016-15.312 67.922-8.9023 23.883 6.4062 42.914 21.887 54.359 41.711zm10.203-774.72c-8.9531-2.3984-18.145 2.9297-20.543 11.879l-5.6875 21.266c-6.2891 0.097656-12.574 0.55078-18.793 1.3672-6.3125 0.83984-12.527 2.0391-18.648 3.5742l-10.992-19.055c-4.6094-8.0156-14.832-10.777-22.848-6.168l-46.059 26.594c-0.3125 0.16797-0.625 0.3125-0.9375 0.50391-8.0156 4.6328-10.754 14.902-6.0977 22.895l11.016 19.078c-4.3906 4.5117-8.543 9.2891-12.406 14.328-3.793 4.9453-7.3203 10.152-10.559 15.602l-21.289-5.7109c-8.9531-2.3984-18.145 2.9297-20.543 11.879l-14.016 52.344c-2.3984 8.9531 2.9297 18.145 11.879 20.543l21.266 5.6875c0.097656 6.2891 0.55078 12.574 1.3672 18.793 0.83984 6.3125 2.0391 12.527 3.5742 18.648l-19.055 10.992c-8.0156 4.6094-10.777 14.832-6.168 22.848l26.594 46.055c0.16797 0.3125 0.3125 0.625 0.50391 0.9375 4.6328 8.0156 14.902 10.754 22.895 6.0977l19.055-11.016c4.5117 4.3906 9.2891 8.543 14.328 12.406 4.9453 3.793 10.152 7.3203 15.602 10.559l-5.7109 21.289c-2.3984 8.9531 2.9297 18.145 11.879 20.543l52.344 14.016c8.9531 2.3984 18.145-2.9297 20.543-11.879l5.6875-21.266c6.2891-0.097656 12.574-0.55078 18.793-1.3672 6.3125-0.83984 12.527-2.0391 18.648-3.5742l10.512 18.191c0.16797 0.3125 0.3125 0.625 0.50391 0.9375 4.6328 8.0156 14.902 10.754 22.895 6.0977l46.922-27.098c8.0156-4.6328 10.754-14.902 6.0977-22.895l-11.016-19.055c4.3906-4.5117 8.543-9.2891 12.406-14.328 3.793-4.9453 7.3203-10.152 10.559-15.602l21.289 5.7109c8.9531 2.3984 18.145-2.9297 20.543-11.879l14.016-52.344c2.3984-8.9531-2.9297-18.145-11.879-20.543l-21.266-5.6875c-0.097656-6.2891-0.55078-12.574-1.3672-18.816-0.83984-6.3125-2.0156-12.504-3.5742-18.602l19.105-11.039-0.023438-0.023438c7.9688-4.6094 10.703-14.809 6.1211-22.801l-26.547-46.059c-0.16797-0.3125-0.3125-0.625-0.50391-0.9375-4.6328-8.0156-14.902-10.754-22.895-6.0977l-19.078 11.016c-4.5117-4.4141-9.3125-8.543-14.328-12.434-4.9453-3.793-10.152-7.3203-15.602-10.559l5.7109-21.289c2.3984-8.9531-2.9297-18.145-11.879-20.543zm27.453 42.094-19.922-5.3281-4.7031 17.52c-1.8945 7.8477-9.2383 13.367-17.543 12.742-8.8789-0.67188-17.594-0.40625-25.992 0.69531-8.6406 1.1289-17.137 3.168-25.32 6.0234v-0.023437c-7.4414 2.6172-15.938-0.35938-20.016-7.4648l-9.2656-16.055-17.93 10.344 9.2656 16.055c3.9609 6.8164 2.6406 15.719-3.5273 21.07-6.5273 5.6406-12.527 11.977-17.879 18.91-5.0898 6.6484-9.5742 13.824-13.32 21.48-3.2148 7.5586-11.594 11.809-19.754 9.625l-17.879-4.8008-5.3281 19.922 17.52 4.7031c7.8242 1.8945 13.367 9.2383 12.742 17.543-0.67187 8.8789-0.40625 17.594 0.69531 25.992 1.1289 8.6406 3.168 17.137 6.0234 25.32h-0.023437c2.6172 7.4414-0.35938 15.938-7.4648 20.016l-16.055 9.2656 10.344 17.93 16.055-9.2656c6.8164-3.9609 15.719-2.6406 21.07 3.5273 5.6406 6.5273 11.977 12.527 18.91 17.879 6.6484 5.0898 13.824 9.5742 21.48 13.32 7.5586 3.2148 11.809 11.594 9.625 19.754l-4.8008 17.879 19.922 5.3281 4.7031-17.52c1.8945-7.8242 9.2383-13.367 17.543-12.742 8.8789 0.67188 17.594 0.40625 25.992-0.69531 8.6406-1.1289 17.137-3.168 25.32-6.0234v0.023437c7.4414-2.6172 15.938 0.35938 20.016 7.4648l9.2383 16.008 17.93-10.344-9.2656-16.031c-3.9609-6.8164-2.6406-15.719 3.5273-21.07 6.5273-5.6406 12.527-11.953 17.879-18.91 5.0898-6.6484 9.5742-13.824 13.32-21.48 3.2148-7.5586 11.594-11.809 19.754-9.625l17.879 4.8008 5.3281-19.922-17.855-4.7773c-7.6328-2.0156-12.984-9.2383-12.406-17.398 0.67188-8.9297 0.40625-17.641-0.69531-26.062-1.1055-8.4492-3.0703-16.727-5.832-24.719-2.9766-7.5859-0.046874-16.391 7.2227-20.617l16.105-9.2891-10.344-17.902-16.055 9.2656c-6.8164 3.9609-15.719 2.6406-21.07-3.5273-5.6406-6.5273-11.977-12.527-18.91-17.879-6.6484-5.0898-13.824-9.5742-21.48-13.32-7.5586-3.2148-11.809-11.594-9.625-19.754zm-23.734 48.891-0.046875-0.023437c-28.535-7.6562-57.504-2.9766-81.266 10.727-23.449 13.535-41.785 35.902-49.609 63.984-0.21484 0.64844-0.40625 1.3438-0.55078 2.0156-7.2734 28.223-2.5664 56.785 10.992 80.281l0.023438-0.023438c13.559 23.473 35.93 41.809 63.938 49.633 0.64844 0.21484 1.3438 0.40625 2.0156 0.55078 28.223 7.2734 56.785 2.5664 80.281-10.992 23.711-13.703 42.215-36.434 49.871-64.969l0.023437-0.046875c7.6562-28.535 2.9766-57.504-10.727-81.266l-0.023437 0.023438c-13.707-23.758-36.434-42.262-64.922-49.895zm35.953 66.598 0.023437 0.046875-0.023437 0.023437c9.3828 16.273 12.574 36.168 7.3203 55.801-5.2578 19.633-17.977 35.258-34.273 44.664-16.273 9.4062-36.168 12.574-55.801 7.3203h-0.023438c-19.633-5.2578-35.281-17.953-44.641-34.199l-0.023437-0.046875 0.023437-0.023438c-9.4062-16.273-12.574-36.168-7.3203-55.801v-0.023437c5.2578-19.609 17.977-35.23 34.273-44.641 16.273-9.3828 36.168-12.574 55.801-7.3203 19.656 5.2578 35.277 17.953 44.664 34.199zm732.96 149.59-61.129-61.129-43.391 43.391-0.023437-0.023438c-5.5938 5.5938-14.543 6.6016-21.312 1.9922-17.328-11.785-35.52-21.574-54.266-29.352-18.863-7.8008-38.352-13.633-58.176-17.473-8.3516-0.98438-14.809-8.0898-14.809-16.68v-61.465h-86.52v60.527c0.45703 8.2812-5.2812 15.816-13.656 17.398-20.207 3.8398-40.055 9.7188-59.258 17.688-18.457 7.6328-36.359 17.23-53.426 28.777-6.6016 5.1367-16.129 4.6797-22.199-1.3906l-43.391-43.391-61.129 61.129 43.375 43.414-0.023437 0.023438c5.5938 5.5938 6.6016 14.543 1.9922 21.312-11.785 17.328-21.574 35.52-29.352 54.266-7.8008 18.863-13.633 38.352-17.473 58.176-0.98438 8.3516-8.0898 14.809-16.68 14.809h-61.391v86.52h60.48c8.2812-0.45703 15.816 5.2812 17.398 13.656 3.8398 20.207 9.7188 40.055 17.688 59.258 7.6328 18.457 17.23 36.359 28.777 53.426 5.1367 6.6016 4.6797 16.129-1.3906 22.176l-43.391 43.391 61.129 61.129 43.391-43.391 0.023438 0.023438c5.5938-5.5938 14.543-6.6016 21.312-1.9922 17.328 11.785 35.52 21.574 54.266 29.352 18.863 7.8008 38.352 13.633 58.176 17.473 8.3516 0.98438 14.809 8.0898 14.809 16.68v61.391h86.52v-60.48c-0.45703-8.2812 5.2812-15.816 13.656-17.398 20.207-3.8398 40.055-9.7188 59.258-17.688 18.457-7.6328 36.359-17.23 53.426-28.777 6.6016-5.1367 16.129-4.6797 22.199 1.3906l43.391 43.391 61.129-61.129-43.391-43.391 0.023438-0.023437c-5.5938-5.5938-6.6016-14.543-1.9922-21.312 11.809-17.328 21.574-35.52 29.352-54.289 7.8008-18.84 13.633-38.352 17.473-58.176 0.98438-8.3516 8.0898-14.809 16.68-14.809h61.465v-86.52h-60.527c-8.2812 0.45703-15.816-5.2812-17.398-13.656-3.8398-20.207-9.7422-40.078-17.688-59.281-7.6328-18.457-17.23-36.359-28.754-53.398-5.1367-6.6016-4.6797-16.129 1.3906-22.176zm-210.05 205.32c4.9219 14.258 6.1914 29.496 3.8633 44.305-2.9297 18.434-11.449 36.098-25.559 50.207-17.832 17.832-41.207 26.762-64.586 26.762-23.375 0-46.754-8.9297-64.586-26.762-17.832-17.832-26.762-41.207-26.762-64.586 0-23.375 8.9297-46.754 26.762-64.586 14.113-14.113 31.777-22.633 50.207-25.559 14.809-2.3516 30.047-1.0547 44.305 3.8633l68.426-68.426c-33.023-21.023-71.305-30.457-109.08-28.273-43.223 2.4961-85.777 20.305-118.87 53.398-35.832 35.832-53.762 82.754-53.762 129.6h0.070313c0 46.922 17.902 93.816 53.688 129.6 35.785 35.785 82.703 53.688 129.6 53.688 46.922 0 93.816-17.902 129.6-53.688 33.098-33.098 50.902-75.648 53.398-118.87 2.1836-37.754-7.2461-76.055-28.273-109.08zm-29.23 39.047c-1.8242 11.566-7.2461 22.703-16.246 31.703-11.281 11.281-26.062 16.922-40.848 16.922-14.785 0-29.566-5.6406-40.848-16.922s-16.922-26.062-16.922-40.848 5.6406-29.566 16.922-40.848c9-9 20.137-14.398 31.703-16.246 11.902-1.8945 24.312-0.023437 35.352 5.5938 6.6484 3.3828 14.496 1.9219 19.488-3.0977l90.406-90.406c6.5508-6.5508 6.5508-17.207 0-23.762-0.74219-0.74219-1.5352-1.3906-2.3516-1.9688-42.648-33.48-94.922-48.742-146.3-45.77-51.289 2.9766-101.69 24-140.81 63.121-42.312 42.312-63.457 97.824-63.457 153.36h-0.070312c0 55.512 21.168 111 63.527 153.36 42.359 42.359 97.848 63.527 153.36 63.527 55.512 0 111.02-21.168 153.36-63.527 39.121-39.121 60.145-89.52 63.121-140.81 3-51.77-12.504-104.43-46.488-147.21-5.7617-7.2461-16.32-8.4492-23.566-2.6875-0.50391 0.40625-0.98438 0.81641-1.4141 1.2734l-0.023437-0.023437-90.406 90.406c-5.4258 5.4258-6.3594 13.656-2.8086 20.039 5.3945 10.922 7.1719 23.113 5.3242 34.824z" fill="#fff" fill-rule="evenodd"/>
</svg>
