<?xml version="1.0" encoding="UTF-8"?>
<svg width="1200pt" height="1200pt" version="1.1" viewBox="0 0 1200 1200" xmlns="http://www.w3.org/2000/svg">
 <g fill="#fff">
  <path d="m445.8 380.68-78.488 78.488-16.969-16.969 78.488-78.488z"/>
  <path d="m526.41 406.15-133.64 133.64-16.969-16.969 133.64-133.64z"/>
  <path d="m799.99 132.72h-400c-52.934 0-96 43.066-96 96v742.56c0 52.934 43.066 96 96 96h400c52.945 0 96-43.066 96-96v-742.56c0-52.941-43.055-96-96-96zm-400 24h400c39.707 0 72 32.293 72 72v73.066l-544 0.003906v-73.07c0-39.707 32.305-72 72-72zm472 169.06v581.5h-544v-581.5zm-72 717.5h-400c-39.707 0-72-32.293-72-72v-40.008h544v40.008c0 39.707-32.293 72-72 72z"/>
  <path d="m544 205.14h112v24h-112z"/>
  <path d="m638.36 943.27h-76.727c-23.316 0-42.289 18.973-42.289 42.289s18.973 42.289 42.289 42.289h76.727c23.316 0 42.301-18.973 42.301-42.289 0-23.32-18.973-42.289-42.301-42.289zm0 60.586h-76.727c-10.094 0-18.289-8.207-18.289-18.289 0-10.078 8.207-18.289 18.289-18.289h76.727c10.105 0 18.301 8.207 18.301 18.289 0 10.082-8.1953 18.289-18.301 18.289z"/>
 </g>
</svg>
