<?xml version="1.0" encoding="UTF-8"?>
<svg width="1200pt" height="1200pt" version="1.1" viewBox="0 0 1200 1200" xmlns="http://www.w3.org/2000/svg">
 <g fill="#fff">
  <path d="m651.82 127.09h-150.36c-8.3633 0-15.273 6.9102-15.273 15.273s6.9102 15.273 15.273 15.273h150.36c8.3633 0 15.273-6.9102 15.273-15.273s-6.9062-15.273-15.273-15.273z"/>
  <path d="m1085.6 286.73h-146.36v-62.363c0-0.18359 0.18359-0.36328 0.18359-0.54688s-0.18359-0.36328-0.18359-0.54688v-75.27c0-56.363-45.816-102.36-102.18-102.36h-520.73c-56.363 0-102.18 45.816-102.18 102.36v75.453c0 0.18359-0.18359 0.36328-0.18359 0.54688s0.18359 0.36328 0.18359 0.54688v59.09c0 8.3633 6.9102 15.273 15.273 15.273s15.273-6.9102 15.273-15.273v-44.363h663.82v47.637h-277.45c-43.637 0-79.09 35.453-79.09 79.09v454.73c0 43.637 35.453 79.09 79.09 79.09h277.45v43.637h-663.64v-131.27c0-8.3633-6.9102-15.273-15.273-15.273-8.3633 0-15.273 6.9102-15.273 15.273v146c0 0.18359-0.18359 0.36328-0.18359 0.54687 0 0.18359 0.18359 0.36328 0.18359 0.54688v93.09c0 56.363 45.816 102.18 102.18 102.18h520.73c6.3633 0 12-0.54688 17.09-1.4531l-2.9102-14.91 5.6367 14.547c3.4531-0.54688 6.5469-1.4531 9.6367-2.3633 18.727-5.4531 35.273-16.363 47.273-30.363 1.6367-1.8164 3.2734-3.4531 4.9102-5.8164 2.7266-3.6367 5.2734-7.4531 8-12.547 0.91016-1.6367 1.6367-3.0898 2.1836-4 3.0898-6.1836 5.6367-13.273 7.8164-21.637 0.54688-2.9102 1.0898-5.8164 1.4531-8.9102v-0.36328c0.36328-2.1836 0.72656-4.5469 0.72656-6.9102 0.18359-1.2734 0.18359-2.1836 0.18359-3.0898v-1.2734-95.09c0-0.54688 0.36328-0.91016 0.36328-1.4531 0-0.54687-0.18359-0.91016-0.36328-1.4531v-57.453h146.55c43.637 0 79.09-35.453 79.09-79.09l0.003906-455.1c-0.18359-43.633-35.637-79.09-79.273-79.09zm-840.91-78.18v-60.547c0-39.637 32.184-71.816 71.637-71.816h520.73c39.453 0 71.637 32.184 71.637 71.816v60.727h-664zm663.64 846.91c-0.18359 0.72656-0.18359 1.4531-0.18359 2.3633 0 1.4531-0.18359 2.9102-0.54688 4.3633 0 0.36328-0.18359 0.72656-0.18359 1.2734-0.18359 2-0.54688 4-0.91016 5.4531-1.4531 5.6367-3.2734 10.547-5.6367 15.453-0.18359 0.54688-0.54688 1.2734-0.91016 1.8164-0.18359 0.18359-0.91016 1.6367-0.91016 1.8164-1.6367 2.9102-3.4531 5.4531-5.0898 7.8164-0.54688 0.72656-1.2734 1.4531-2.7266 3.0898-8.7266 10.363-20.363 18-33.637 21.816-2.1836 0.72656-4.1836 1.2734-6.3633 1.6367 0 0-2.9102 0.54688-2.9102 0.54688-3.2734 0.54687-7.0898 0.91016-11.453 0.91016l-520.54 0.007812c-39.453 0-71.637-32.184-71.637-71.637v-78.363h663.64v81.273 0.36328zm225.82-234.91c0 26.727-21.816 48.547-48.547 48.547h-161.45-0.36328-0.36328l-292.37-0.003906c-26.727 0-48.547-21.816-48.547-48.547l0.003906-454.73c0-26.727 21.816-48.547 48.547-48.547h454.55c26.727 0 48.547 21.816 48.547 48.547z"/>
  <path d="m1074.2 362h-431.82c-8.3633 0-15.273 6.9102-15.273 15.273v110.55c0 8.3633 6.9102 15.273 15.273 15.273h431.82c8.3633 0 15.273-6.9102 15.273-15.273v-110.55c0-8.3633-6.9062-15.273-15.27-15.273zm-15.273 110.55h-401.27v-80h401.27z"/>
  <path d="m1074.2 535.64h-150.18c-8.3633 0-15.273 6.9102-15.273 15.273v110.55c0 8.3633 6.9102 15.273 15.273 15.273h150.18c8.3633 0 15.273-6.9102 15.273-15.273l-0.003906-110.55c0-8.3633-6.9062-15.273-15.27-15.273zm-15.273 110.55h-119.64v-80h119.64z"/>
  <path d="m792.55 535.64h-150.18c-8.3633 0-15.273 6.9102-15.273 15.273v110.55c0 8.3633 6.9102 15.273 15.273 15.273h150.18c8.3633 0 15.273-6.9102 15.273-15.273l-0.003906-110.55c0-8.3633-6.9062-15.273-15.27-15.273zm-15.273 110.55h-119.64v-80h119.64z"/>
  <path d="m246.73 651.27c55.637-0.72656 100.55-46.727 100-102.36-0.72656-55.273-46-99.816-101.27-99.816h-1.0898c-55.816 0.72656-100.55 46.547-99.816 102.18 0.36328 27.09 11.09 52.363 30.547 71.273 19.09 18.547 44 28.727 70.547 28.727 0.17578-0.003906 0.54297-0.003906 1.0859-0.003906zm-71.816-100.36c-0.54688-38.91 30.727-70.91 69.637-71.273h0.72656c38.547 0 70.184 31.09 70.727 69.637 0.36328 38.91-30.91 70.91-69.816 71.453-18.727 0.36328-36.547-6.9102-50-20.184-13.457-13.09-21.094-30.727-21.273-49.633z"/>
  <path d="m233.27 757.82 29.273-0.36328c15.816-0.18359 29.816-10.91 34.184-26.184l6.1797-22.18c6.7266-2.3633 13.273-5.0898 19.637-8.3633l20.363 10.91c14 7.4531 31.453 4.7266 42.547-6.7266l20.547-21.09c11.09-11.273 13.273-28.91 5.6367-42.727l-11.273-20.184c2.9102-6 5.2734-12.184 7.4531-18.547 0.18359-0.36328 0.18359-0.72656 0.36328-1.0898l22.184-6.9102c15.09-4.7266 25.453-18.91 25.273-34.727l-0.36328-29.273c-0.18359-15.816-10.91-29.816-26.184-34.184l-22.363-6.3633c-0.18359-0.72656-0.54688-1.4531-0.72656-2.1836-2.1836-6-4.7266-11.816-7.6367-17.637l10.727-20.363c7.4531-14 4.7266-31.453-6.5469-42.547l-20.73-19.633c-11.273-11.09-28.91-13.453-42.727-5.6367l-20.91 11.816-18.727-7.4531-6.9102-22.727c-4.5469-15.09-18.727-25.273-34.727-25.453l-29.273 0.36328c-15.816 0.18359-29.816 10.91-34.184 26l-6.3633 22.363c-6.7266 2.3633-13.273 5.2734-19.453 8.3633l-20.184-10.91c-14-7.4531-31.637-4.7266-42.727 6.5469l-20.363 20.91c-11.09 11.273-13.273 28.91-5.4531 42.727l11.094 19.82c-3.2734 6.5469-5.8164 13.273-8 19.816l-22.184 6.9102c-15.09 4.7266-25.453 18.91-25.273 34.727l0.36328 29.273c0.18359 15.816 10.91 29.816 26 34l22.363 6.3633c2.3633 6.7266 5.2734 13.273 8.3633 19.637l-10.727 20.18c-7.4531 14-4.7266 31.453 6.5469 42.547l20.727 20.547c11.273 11.09 28.91 13.453 42.547 5.6367l20.184-11.273c6.3633 3.0898 12.91 5.6367 19.637 8l6.7266 22c4.5469 14.91 18.727 25.273 34.363 25.273 0.36328-0.003906 0.54297-0.003906 0.72656-0.003906zm-5.6367-34.18-9.0898-29.816c-1.4531-4.9102-5.4531-8.7266-10.547-10.184-10.184-2.9102-20-6.9102-29.09-11.816-2.1836-1.2734-4.7266-1.8164-7.2734-1.8164s-5.0898 0.72656-7.4531 2l-27.273 15.273c-2 1.0898-4.7266 0.72656-6.3633-0.91016l-20.91-20.363c-1.6367-1.6367-2.1836-4.3633-0.91016-6.3633l14.547-27.453c2.3633-4.5469 2.3633-10.184-0.18359-14.727-5.2734-9.0898-9.4531-18.91-12.547-29.09-1.4531-5.0977-5.4531-8.918-10.359-10.188l-30-8.5469c-2.3633-0.72656-3.8164-2.7266-4-5.0898l-0.36328-29.273c0-2.3633 1.4531-4.5469 3.8164-5.2734l29.816-9.2734c4.9102-1.4531 8.9102-5.4531 10.184-10.547 2.5469-9.6367 6.5469-19.09 11.816-29.09 2.5469-4.5469 2.3633-10.184-0.18359-14.727l-15.273-27.09c-1.0898-2-0.91016-4.7266 0.91016-6.3633l20.363-20.91c1.6367-1.6367 4.3633-2.1836 6.3633-0.91016l27.453 14.727c4.5469 2.5469 10.184 2.3633 14.727-0.18359 9.0898-5.2734 18.727-9.2734 28.91-12.547 4.9102-1.4531 8.7266-5.4531 10.184-10.363l8.7266-30.184c0.72656-2.1836 2.7266-3.8164 5.0898-3.8164l29.273-0.36328c2.3633 0 4.5469 1.4531 5.2734 3.8164l9.0898 29.816c1.2734 4.3633 4.5469 8 8.9102 9.6367l32.363 12.91c4.3633 1.6367 9.0898 1.4531 13.09-0.91016l27.273-15.273c2-1.2734 4.7266-0.91016 6.3633 0.91016l20.91 20.547c1.6367 1.6367 2 4.3633 0.91016 6.3633l-14.727 27.453c-2.5469 4.5469-2.3633 10.184 0.18359 14.727 3.8164 6.5469 6.9102 13.453 9.4531 20.184 0.91016 2.9102 2 5.8164 2.9102 8.7266 1.4531 4.9102 5.4531 8.9102 10.363 10.184l30.184 8.5469c2.3633 0.72656 3.8164 2.7266 4 5.0898l0.36328 29.273c0 2.3633-1.4531 4.5469-3.8164 5.2734l-29.816 9.0898c-0.72656 0.18359-1.4531 0.54688-2 0.72656-4 1.8164-7.0898 5.4531-8.3633 9.8164-0.72656 2.5469-1.4531 4.9102-2.1836 7.2734-2.5469 7.4531-5.6367 14.727-9.4531 21.816-2.3633 4.5469-2.3633 10 0.18359 14.547l15.273 27.09c1.0898 2 0.72656 4.7266-0.91016 6.3633l-20.188 21.281c-1.6367 1.6367-4.3633 2.1836-6.3633 0.91016l-27.637-14.727c-4.5469-2.3633-10.184-2.3633-14.727 0.18359-9.2734 5.2734-18.91 9.2734-28.727 12.363-5.0898 1.4531-8.9102 5.4531-10.363 10.547l-8.5469 30.184c-0.72656 2.3633-2.7266 3.8164-5.0898 4l-29.273 0.17578c-2.9102 0-4.5469-1.457-5.2734-3.6367z"/>
  <path d="m792.55 712h-150.18c-8.3633 0-15.273 6.9102-15.273 15.273 0 8.3633 6.9102 15.273 15.273 15.273h150.18c8.3633 0 15.273-6.9102 15.273-15.273-0.003906-8.5469-6.9102-15.273-15.273-15.273z"/>
  <path d="m744 778h-101.45c-8.3633 0-15.273 6.9102-15.273 15.273 0 8.3633 6.9102 15.273 15.273 15.273h101.45c8.3633 0 15.273-6.9102 15.273-15.273-0.18359-8.5469-6.9102-15.273-15.273-15.273z"/>
  <path d="m1074.2 712h-150.18c-8.3633 0-15.273 6.9102-15.273 15.273 0 8.3633 6.9102 15.273 15.273 15.273h150.18c8.3633 0 15.273-6.9102 15.273-15.273-0.003906-8.5469-6.9102-15.273-15.273-15.273z"/>
  <path d="m1025.5 778h-101.45c-8.3633 0-15.273 6.9102-15.273 15.273 0 8.3633 6.9102 15.273 15.273 15.273h101.45c8.3633 0 15.273-6.9102 15.273-15.273 0-8.5469-6.7266-15.273-15.273-15.273z"/>
  <path d="m576.73 998.73c-27.637 0-50.184 22.547-50.184 50.184 0 27.637 22.547 50.184 50.184 50.184 27.637 0 50.184-22.547 50.184-50.184 0-27.637-22.547-50.184-50.184-50.184zm0 69.82c-10.727 0-19.637-8.7266-19.637-19.637s8.7266-19.637 19.637-19.637c10.91 0 19.637 8.7266 19.637 19.637 0 10.727-8.9102 19.637-19.637 19.637z"/>
 </g>
</svg>
